<svg width="21" height="22" viewBox="0 0 21 22" fill="none" xmlns="http://www.w3.org/2000/svg">
<path d="M19.5011 0.087307C20.3915 -0.286823 21.2868 0.608518 20.9127 1.49894L18.8855 6.32355C17.7632 8.99475 17.7632 12.0053 18.8855 14.6764L20.9127 19.5011C21.2868 20.3915 20.3915 21.2868 19.5011 20.9127L14.6764 18.8855C12.0053 17.7632 8.99474 17.7632 6.32355 18.8855L1.49894 20.9127C0.608517 21.2868 -0.28682 20.3915 0.0873092 19.5011L2.11448 14.6764C3.23684 12.0053 3.23684 8.99474 2.11448 6.32355L0.087307 1.49894C-0.286823 0.608517 0.608518 -0.286821 1.49894 0.0873083L6.32355 2.11448C8.99475 3.23684 12.0053 3.23684 14.6764 2.11448L19.5011 0.087307Z" fill="url(#paint0_radial_2817_102626)"/>
<path d="M7.26059 10.8879C6.91314 10.746 6.91314 10.254 7.26058 10.1121L8.74221 9.50722C9.08965 9.36537 9.36537 9.08965 9.50722 8.74221L10.1121 7.26059C10.254 6.91314 10.746 6.91314 10.8879 7.26058L11.4928 8.74221C11.6346 9.08965 11.9104 9.36537 12.2578 9.50722L13.7394 10.1121C14.0869 10.254 14.0869 10.746 13.7394 10.8879L12.2578 11.4928C11.9104 11.6346 11.6346 11.9104 11.4928 12.2578L10.8879 13.7394C10.746 14.0869 10.254 14.0869 10.1121 13.7394L9.50722 12.2578C9.36537 11.9104 9.08965 11.6346 8.74221 11.4928L7.26059 10.8879Z" fill="#F2F5FA"/>
<defs>
<radialGradient id="paint0_radial_2817_102626" cx="0" cy="0" r="1" gradientUnits="userSpaceOnUse" gradientTransform="translate(-0.492189 -0.492189) rotate(45) scale(30.3945 27.6555)">
<stop stop-color="#6923DE"/>
<stop offset="1" stop-color="#3286FF"/>
</radialGradient>
</defs>
</svg>
