<svg width="22" height="22" viewBox="0 0 22 22" fill="none" xmlns="http://www.w3.org/2000/svg">
<path d="M8.68629 3.10073C8.92294 2.52111 9.74373 2.52111 9.98038 3.10074L11.2626 6.24137C11.9726 7.9802 13.3525 9.36012 15.0913 10.0701L18.2319 11.3523C18.8116 11.589 18.8116 12.4097 18.2319 12.6464L15.0913 13.9286C13.3525 14.6386 11.9726 16.0185 11.2626 17.7573L9.98038 20.898C9.74373 21.4776 8.92294 21.4776 8.68629 20.898L7.40404 17.7573C6.6941 16.0185 5.31419 14.6386 3.57535 13.9286L0.434719 12.6464C-0.144907 12.4097 -0.144906 11.589 0.434721 11.3523L3.57535 10.0701C5.31419 9.36012 6.6941 7.9802 7.40404 6.24136L8.68629 3.10073Z" fill="url(#paint0_radial_2817_102629)"/>
<path d="M16.8901 0.297812C17.0522 -0.0992702 17.6145 -0.0992708 17.7766 0.297811L18.468 1.9911C18.6301 2.38817 18.9452 2.70328 19.3423 2.8654L21.0356 3.55673C21.4326 3.71885 21.4326 4.28115 21.0356 4.44327L19.3423 5.1346C18.9452 5.29672 18.6301 5.61183 18.468 6.0089L17.7766 7.70219C17.6145 8.09927 17.0522 8.09927 16.8901 7.70219L16.1988 6.0089C16.0367 5.61183 15.7215 5.29672 15.3245 5.1346L13.6312 4.44327C13.2341 4.28115 13.2341 3.71885 13.6312 3.55673L15.3245 2.8654C15.7215 2.70328 16.0367 2.38817 16.1988 1.9911L16.8901 0.297812Z" fill="url(#paint1_radial_2817_102629)"/>
<defs>
<radialGradient id="paint0_radial_2817_102629" cx="0" cy="0" r="1" gradientUnits="userSpaceOnUse" gradientTransform="translate(-0.437501 2.22851) rotate(45) scale(27.0174 24.5827)">
<stop stop-color="#6923DE"/>
<stop offset="1" stop-color="#3286FF"/>
</radialGradient>
<radialGradient id="paint1_radial_2817_102629" cx="0" cy="0" r="1" gradientUnits="userSpaceOnUse" gradientTransform="translate(13.1459 -0.1875) rotate(45) scale(11.5789 10.5354)">
<stop stop-color="#6923DE"/>
<stop offset="1" stop-color="#3286FF"/>
</radialGradient>
</defs>
</svg>
